<svg id="Layer_1" data-name="Layer 1" xmlns="http://www.w3.org/2000/svg" viewBox="0 0 30.89 36.08"><defs><style>.cls-1{fill:none;stroke:#fff;stroke-linecap:round;stroke-linejoin:round;stroke-width:2px;}</style></defs><g id="Phone"><path class="cls-1" d="M17.8,25c1-.1,3-1.9,4-2a4,4,0,0,1,2.8.8l2.7,2,1.6,1.3a2.53,2.53,0,0,1,.5,3.5.1.1,0,0,1-.1.1l-3.1,4a1,1,0,0,1-1,.4C11.7,33.86,1,22.76,1,9.36a23.7,23.7,0,0,1,1-7,1.21,1.21,0,0,1,.5-.5l5.9-.8a2.62,2.62,0,0,1,3.1,2l.4,2,.7,3.3a3.86,3.86,0,0,1-.5,2.8c-.5.8-3.1,1.7-3.6,2.5h0A19.07,19.07,0,0,0,17.8,25Z"/></g></svg>