<?xml version="1.0" encoding="utf-8"?>
<!-- Generator: Adobe Illustrator 25.0.0, SVG Export Plug-In . SVG Version: 6.00 Build 0)  -->
<svg version="1.1" id="Capa_1" xmlns="http://www.w3.org/2000/svg" xmlns:xlink="http://www.w3.org/1999/xlink" x="0px" y="0px"
	 viewBox="0 0 512 512" style="enable-background:new 0 0 512 512;" xml:space="preserve">
<style type="text/css">
	.st0{fill:#E3C886;}
</style>
<g>
	<g>
		<path class="st0" d="M376.3,290.2c66.3-66.3,66.3-174.2,0-240.5c-66.3-66.3-174.2-66.3-240.5,0c-66.3,66.3-66.3,174.2,0,240.5
			c28.1,28.1,63.6,44.2,100.3,48.5v56.9h-40c-11.1,0-20,9-20,20s9,20,20,20h40V492c0,11,9,20,20,20c11.1,0,20-9,20-20v-56.3h40
			c11.1,0,20-9,20-20s-9-20-20-20h-40v-56.9C312.7,334.4,348.2,318.2,376.3,290.2z M164,261.9c-50.7-50.7-50.7-133.2,0-183.9
			c50.7-50.7,133.2-50.7,183.9,0c50.7,50.7,50.7,133.2,0,183.9C297.3,312.6,214.7,312.6,164,261.9z"/>
	</g>
</g>
</svg>
