<?xml version="1.0" encoding="UTF-8" standalone="no"?>
<svg
   xmlns:dc="http://purl.org/dc/elements/1.1/"
   xmlns:cc="http://creativecommons.org/ns#"
   xmlns:rdf="http://www.w3.org/1999/02/22-rdf-syntax-ns#"
   xmlns:svg="http://www.w3.org/2000/svg"
   xmlns="http://www.w3.org/2000/svg"
   xmlns:sodipodi="http://sodipodi.sourceforge.net/DTD/sodipodi-0.dtd"
   xmlns:inkscape="http://www.inkscape.org/namespaces/inkscape"
   version="1.1"
   id="svg2"
   xml:space="preserve"
   width="50.666668"
   height="50.666668"
   viewBox="0 0 50.666668 50.666668"
   sodipodi:docname="Vector Smart Object.ai"><metadata
     id="metadata8"><rdf:RDF><cc:Work
         rdf:about=""><dc:format>image/svg+xml</dc:format><dc:type
           rdf:resource="http://purl.org/dc/dcmitype/StillImage" /></cc:Work></rdf:RDF></metadata><defs
     id="defs6"><clipPath
       clipPathUnits="userSpaceOnUse"
       id="clipPath18"><path
         d="M 0,38 H 38 V 0 H 0 Z"
         id="path16" /></clipPath></defs><sodipodi:namedview
     pagecolor="#ffffff"
     bordercolor="#666666"
     borderopacity="1"
     objecttolerance="10"
     gridtolerance="10"
     guidetolerance="10"
     inkscape:pageopacity="0"
     inkscape:pageshadow="2"
     inkscape:window-width="640"
     inkscape:window-height="480"
     id="namedview4" /><g
     id="g10"
     inkscape:groupmode="layer"
     inkscape:label="Vector Smart Object"
     transform="matrix(1.3333333,0,0,-1.3333333,0,50.666667)"><g
       id="g12"><g
         id="g14"
         clip-path="url(#clipPath18)"><g
           id="g20"
           transform="translate(16.9322,36.8793)"><path
             d="M 0,0 C 9.874,1.142 18.805,-5.937 19.947,-15.812 21.089,-25.686 14.01,-34.616 4.136,-35.758 -5.739,-36.9 -14.669,-29.822 -15.812,-19.947 -16.954,-10.073 -9.875,-1.142 0,0 Z"
             style="fill:none;stroke:#ffffff;stroke-width:2;stroke-linecap:butt;stroke-linejoin:miter;stroke-miterlimit:10.001;stroke-dasharray:none;stroke-opacity:1"
             id="path22" /></g><g
           id="g24"
           transform="translate(15.3399,24.3095)"><path
             d="m 0,0 3.246,6.136 c 0.176,0.332 0.652,0.332 0.828,0 L 7.32,0 c 0.068,-0.128 0.191,-0.217 0.334,-0.242 l 6.838,-1.192 c 0.371,-0.064 0.518,-0.517 0.257,-0.787 L 9.916,-7.205 C 9.815,-7.309 9.768,-7.453 9.789,-7.597 l 0.98,-6.872 c 0.053,-0.372 -0.332,-0.652 -0.67,-0.486 l -6.233,3.056 c -0.13,0.063 -0.282,0.063 -0.412,0 l -6.233,-3.056 c -0.338,-0.166 -0.723,0.114 -0.67,0.486 l 0.981,6.872 c 0.02,0.144 -0.027,0.288 -0.128,0.392 l -4.832,4.984 c -0.262,0.27 -0.115,0.723 0.256,0.787 l 6.838,1.192 C -0.191,-0.217 -0.068,-0.128 0,0"
             style="fill:#ffffff;fill-opacity:1;fill-rule:nonzero;stroke:none"
             id="path26" /></g></g></g></g></svg>
