<svg id="Layer_1" data-name="Layer 1" xmlns="http://www.w3.org/2000/svg" viewBox="0 0 22.29 58.93"><path d="M6.93,56.74a15.61,15.61,0,0,1,1.31-2.15,23.26,23.26,0,0,0,3.41-9.29A18.74,18.74,0,0,0,9.5,33.53a24.33,24.33,0,0,0-1.89-2.82A27.1,27.1,0,0,1,4.7,25.57a29.11,29.11,0,0,1-2.26-7.5,27,27,0,0,1-.19-7.41A30.42,30.42,0,0,1,3.81,3.92,24.41,24.41,0,0,1,5.61,0c0,.25,0,.4,0,.54,0,1.59,0,3.17,0,4.75a18.18,18.18,0,0,0,2.52,8.76,43.5,43.5,0,0,0,5.46,7.33c1.15,1.3,2.4,2.52,3.61,3.77a16.93,16.93,0,0,1,4.87,9.06,13.85,13.85,0,0,1-.46,6.33A22.64,22.64,0,0,1,16.75,49a36.59,36.59,0,0,1-6.35,5.64,20.2,20.2,0,0,1-3.46,2.15Z"/><path d="M.73,29.9c.18,1.05.09,2,.18,3a15.75,15.75,0,0,0,.75,3.53,25.79,25.79,0,0,0,3,5.66,10.88,10.88,0,0,1,1.72,5A15.34,15.34,0,0,1,5,54.73a19.08,19.08,0,0,1-2.32,4l-.16.19-.12,0c.24-.81.44-1.6.63-2.39a18.27,18.27,0,0,0,.44-5.61A14.24,14.24,0,0,0,2,45.57,20.76,20.76,0,0,1,.24,39.43,28.51,28.51,0,0,1,0,34.21a21.91,21.91,0,0,1,.59-4.1A1.47,1.47,0,0,1,.73,29.9Z"/></svg>