<svg id="Layer_1" data-name="Layer 1" xmlns="http://www.w3.org/2000/svg" viewBox="0 0 49.53 42.89"><defs><style>.cls-1{fill:none;stroke:#000;stroke-miterlimit:10;stroke-width:2px;}</style></defs><polygon class="cls-1" points="24.76 2 27.64 6.99 30.52 11.97 33.4 16.96 36.28 21.95 39.16 26.93 42.04 31.92 44.92 36.91 47.8 41.89 42.04 41.89 36.28 41.89 30.52 41.89 24.76 41.89 19.01 41.89 13.25 41.89 7.49 41.89 1.73 41.89 4.61 36.91 7.49 31.92 10.37 26.93 13.25 21.95 16.13 16.96 19.01 11.97 21.89 6.99 24.76 2"/><polygon points="40.7 29.59 8.83 29.59 10.37 26.93 13.25 21.95 16.05 17.1 33.49 17.1 36.29 21.95 39.16 26.93 40.7 29.59"/></svg>