<?xml version="1.0" encoding="utf-8"?>
<!-- Generator: Adobe Illustrator 25.0.0, SVG Export Plug-In . SVG Version: 6.00 Build 0)  -->
<svg version="1.1" id="Capa_1" xmlns="http://www.w3.org/2000/svg" xmlns:xlink="http://www.w3.org/1999/xlink" x="0px" y="0px"
	 viewBox="0 0 512 512" style="enable-background:new 0 0 512 512;" xml:space="preserve">
<style type="text/css">
	.st0{fill:#E3C886;}
</style>
<g>
	<path class="st0" d="M120,358.5V421H75c-8.3,0-15,6.7-15,15s6.7,15,15,15h45v46c0,8.3,6.7,15,15,15s15-6.7,15-15v-46h45
		c8.3,0,15-6.7,15-15s-6.7-15-15-15h-45v-62.5c10.2-1.3,20.2-3.4,29.6-6.7c-8.6-7.2-16.4-15.2-23.4-24c-6.8,1.4-13.9,2.2-21.2,2.2
		c-57.9,0-105-47.1-105-105s47.1-105,105-105c59.8,0,105,51,105,105c0,17.4-4.6,33.5-12.2,48c6.6,7.8,14.6,14.2,23.8,18.8
		C263,272,270,249.4,270,225c0-69.6-57.2-135-135-135C60.6,90,0,150.6,0,225C0,294.3,52.7,350.9,120,358.5z"/>
	<path class="st0" d="M497,0h-90c-8.3,0-15,6.7-15,15s6.7,15,15,15h53.8l-92,90c-23.1-18.5-52-30-83.8-30c-15.7,0-30.6,3.2-44.6,8.2
		c8.6,7.2,16.4,15.2,23.4,24c6.8-1.4,13.9-2.2,21.2-2.2c57.9,0,105,47.1,105,105s-47.1,105-105,105c-59.4,0-105-50.5-105-105
		c0-17.4,4.6-33.5,12.2-48c-6.6-7.8-14.6-14.2-23.8-18.8C157,178,150,200.6,150,225c0,70.3,58.8,135,135,135
		c74.4,0,135-60.6,135-135c0-31.8-11.5-60.7-30-83.8l92-90V105c0,8.3,6.7,15,15,15s15-6.7,15-15V15C512,6.8,505.3,0,497,0L497,0z"/>
</g>
</svg>
