<svg id="Layer_1" data-name="Layer 1" xmlns="http://www.w3.org/2000/svg" viewBox="0 0 102.33 52.83"><defs><style>.cls-1,.cls-2{fill:none;stroke:#000;stroke-width:3px;}.cls-1{stroke-linejoin:round;}.cls-2{stroke-miterlimit:10;}</style></defs><polyline class="cls-1" points="28.7 43 22.4 43 22.4 1.5 79 1.5 79 28.5"/><line class="cls-2" x1="66.7" y1="43" x2="51.1" y2="43"/><polyline class="cls-1" points="95.2 43 100.6 43 100.6 21.8 92.1 9.8 79 9.8 79 24.9"/><path class="cls-2" d="M49.9,43a8.3,8.3,0,1,1-8.3-8.3A8.28,8.28,0,0,1,49.9,43"/><circle class="cls-2" cx="81.3" cy="43" r="8.3"/><line class="cls-2" x1="16.1" y1="22.6" y2="22.6"/><line class="cls-2" x1="16.1" y1="32.8" x2="3.2" y2="32.8"/><line class="cls-2" x1="16.1" y1="43" x2="9.7" y2="43"/><circle cx="41.7" cy="43" r="1.8"/><circle cx="81.3" cy="43" r="1.8"/></svg>