<?xml version="1.0" encoding="UTF-8" standalone="no"?>
<!-- Created with Inkscape (http://www.inkscape.org/) -->

<svg
   width="64"
   height="64"
   viewBox="0 0 16.933333 16.933333"
   version="1.1"
   id="svg5"
   inkscape:version="1.1 (ce6663b3b7, 2021-05-25)"
   xmlns:inkscape="http://www.inkscape.org/namespaces/inkscape"
   xmlns:sodipodi="http://sodipodi.sourceforge.net/DTD/sodipodi-0.dtd"
   xmlns="http://www.w3.org/2000/svg"
   xmlns:svg="http://www.w3.org/2000/svg">
  <sodipodi:namedview
     id="namedview7"
     pagecolor="#ffffff"
     bordercolor="#666666"
     borderopacity="1.0"
     inkscape:pageshadow="2"
     inkscape:pageopacity="0.0"
     inkscape:pagecheckerboard="0"
     inkscape:document-units="mm"
     showgrid="false"
     scale-x="1"
     units="px"
     height="64px"
     inkscape:zoom="3.0075196"
     inkscape:cx="-28.761242"
     inkscape:cy="38.403739"
     inkscape:window-width="1848"
     inkscape:window-height="1016"
     inkscape:window-x="72"
     inkscape:window-y="27"
     inkscape:window-maximized="1"
     inkscape:current-layer="layer1" />
  <defs
     id="defs2" />
  <g
     inkscape:label="Layer 1"
     inkscape:groupmode="layer"
     id="layer1">
    <g
       id="g20"
       transform="matrix(0.35277778,0,0,0.35277054,4.2333333,4.2333333)">
      <path
         d="m 3.424,23.25 c 0,0.574 0.618,0.933 1.118,0.654 l 4.091,-2.303 c 3.784,1.024 7.851,0.271 10.943,-2.036 C 22.387,17.468 24,14.354 24,11.022 24,4.944 18.617,0 12,0 5.383,0 0,4.944 0,11.022 c 0,2.916 1.213,5.637 3.424,7.699 z M 1.5,11.022 C 1.5,5.771 6.21,1.5 12,1.5 c 5.79,0 10.5,4.271 10.5,9.522 0,2.854 -1.393,5.53 -3.821,7.341 C 15.88,20.45 12.167,21.091 8.751,20.075 8.556,20.017 8.346,20.041 8.169,20.14 L 4.923,21.967 V 18.388 C 4.923,18.173 4.83,17.967 4.669,17.825 2.625,16.027 1.5,13.611 1.5,11.022 Z"
         id="path9" />
      <path
         d="m 4.835,15.171 5.509,-2.755 2.618,2.69 c 0.343,0.353 0.82,0.258 1.072,0.004 l 6,-6.083 C 20.629,8.423 19.914,7.447 19.159,7.832 L 13.65,10.644 11.036,7.975 C 10.757,7.691 10.28,7.66 9.97,7.97 l -6,6 c -0.6,0.6 0.11,1.58 0.865,1.201 z m 5.66,-5.605 2.47,2.521 c 0.23,0.235 0.586,0.292 0.876,0.143 l 1.866,-0.952 -2.203,2.233 -2.466,-2.535 C 10.81,10.741 10.456,10.683 10.165,10.828 l -1.866,0.933 z"
         id="path11" />
    </g>
  </g>
</svg>
