<svg id="Layer_1" data-name="Layer 1" xmlns="http://www.w3.org/2000/svg" width="104.9mm" height="106.9mm" viewBox="0 0 297.4 302.9">
  <defs>
    <style>
      .cls-1 {
        fill: #201e1f;
      }

      .cls-2 {
        fill: #1a1718;
      }

      .cls-3 {
        fill: #191718;
      }

      .cls-4 {
        fill: #fefefe;
      }

      .cls-5 {
        fill: #f05540;
      }

      .cls-6 {
        fill: #f26e59;
      }

      .cls-7 {
        fill: #30495d;
      }

      .cls-8 {
        fill: #fecf5d;
      }

      .cls-9 {
        fill: #e6e6eb;
      }

      .cls-10 {
        fill: #fdfdfd;
      }

      .cls-11 {
        fill: #88d4f6;
      }

      .cls-12 {
        fill: #88d4f5;
      }

      .cls-13 {
        fill: #304a5d;
      }

      .cls-14 {
        fill: #cdd4de;
      }

      .cls-15 {
        fill: #2a394d;
      }

      .cls-16 {
        fill: #332e32;
      }

      .cls-17 {
        fill: #1f2021;
      }

      .cls-18 {
        fill: #201f18;
      }

      .cls-19 {
        fill: #fcfbfb;
      }

      .cls-20 {
        fill: #151415;
      }

      .cls-21 {
        fill: #1b1718;
      }

      .cls-22 {
        fill: #171616;
      }

      .cls-23 {
        fill: #21201d;
      }

      .cls-24 {
        fill: #1c1818;
      }

      .cls-25 {
        fill: #8fd8f7;
      }

      .cls-26 {
        fill: #2d343d;
      }

      .cls-27 {
        fill: #221d1a;
      }

      .cls-28 {
        fill: #191717;
      }

      .cls-29 {
        fill: #f76d58;
      }

      .cls-30 {
        fill: #f06f54;
      }

      .cls-31 {
        fill: #ed6f5c;
      }

      .cls-32 {
        fill: #181617;
      }

      .cls-33 {
        fill: #1d1f25;
      }

      .cls-34 {
        fill: #f3563b;
      }

      .cls-35 {
        fill: #18181c;
      }

      .cls-36 {
        fill: #181718;
      }

      .cls-37 {
        fill: #1a1819;
      }

      .cls-38 {
        fill: #161616;
      }

      .cls-39 {
        fill: #151313;
      }

      .cls-40 {
        fill: #e9ae5d;
      }

      .cls-41 {
        fill: #2e292a;
      }

      .cls-42 {
        fill: #ec5439;
      }

      .cls-43 {
        fill: #ec5840;
      }

      .cls-44 {
        fill: #f25140;
      }

      .cls-45 {
        fill: #f1553a;
      }

      .cls-46 {
        fill: #ee6d53;
      }

      .cls-47 {
        fill: #f95545;
      }

      .cls-48 {
        fill: #f15346;
      }

      .cls-49 {
        fill: #f45345;
      }

      .cls-50 {
        fill: #2f4a60;
      }

      .cls-51 {
        fill: #2b3a4d;
      }

      .cls-52 {
        fill: #272221;
      }

      .cls-53 {
        fill: #252222;
      }

      .cls-54 {
        fill: #8edcfc;
      }

      .cls-55 {
        fill: #2a435f;
      }

      .cls-56 {
        fill: #282627;
      }

      .cls-57 {
        fill: #262627;
      }

      .cls-58 {
        fill: #304c65;
      }
    </style>
  </defs>
  <title>internet-bank</title>
  <g>
    <path class="cls-1" d="M273.3,45.3c.9,8.5.2,16.9.4,25.4a10.7,10.7,0,0,0,1.7,6A148.6,148.6,0,0,1,45.2,261C-4.4,213.3-14.4,136.4,21.4,77.6a14.1,14.1,0,0,0,2.3-8c.1-8.1-.6-16.2.3-24.3,1.2,3.4.4,6.9.5,10.3s0,9,.1,13.5c0-7,0-14-.1-21,0-1.3.4-2.7-.3-4,1-5.5,4.8-8.9,10.6-9,7.4-.1,14.8-.1,22.1,0a8.9,8.9,0,0,0,5.9-1.9,139,139,0,0,1,39.6-19.9c2.3-.7,3.7-1.7,4.3-4.3,1.2-4.9,4.4-8,9.6-8.5,1.1,1,2.4.5,3.6.5h-2.3a1.5,1.5,0,0,1-1.3-.5c1-.8,2.1-.4,3.2-.4H178c7.1.1,11,2.9,12.8,9.7a4.3,4.3,0,0,0,3.4,3.3,143.9,143.9,0,0,1,41,20.7,7.6,7.6,0,0,0,4.9,1.4q11.3-.1,22.5,0c5.7.1,9.6,3.4,10.6,9-.9,6.8-.2,13.7-.4,20.5-.1,1.3.4,2.7,0,3.4.1-5.6,0-11.8,0-18C272.9,48.5,272.3,46.8,273.3,45.3Z"/>
    <path class="cls-2" d="M24.2,44.1c.2.3.6.6.6.9,0,8.7,0,17.4-.8,26.1V45.3Z"/>
    <path class="cls-3" d="M273.3,45.3V69.5h-.9c.6-8.4-1-16.9.8-25.4Z"/>
    <path class="cls-4" d="M225.9,38.8h6.8c8.4-.7,16.8-.1,25.2-.3,1.8,0,3.7-.5,5.5.3a9,9,0,0,1,6.1,5.3,16.8,16.8,0,0,1,.7,5.9V172.6c0,1,0,2-.1,3s-.8,2.5-2.6,2.4H32.1c-4.9,0-4.9,0-4.9-5V48.9a11.2,11.2,0,0,1,.6-4.8,9.5,9.5,0,0,1,6.1-5.3,205.2,205.2,0,0,1,24.8,0h6.7c5.6-.7,11.2-.2,16.8-.3s13.4,0,20.1,0c1.2,0,2.5-.4,3.6.4V53.3c-1.6,1.2-3.6.8-5.4.8H48.8c-4.9,0-5.4.4-5.4,5.3v97.1c0,4.9.1,4.9,5.1,4.9H248.7c5.4,0,5.4,0,5.4-5.5V60.8c0-6.5,0-6.5-6.5-6.7H245a14.8,14.8,0,0,0-5.5-.6H199c-2.4,0-4.8.2-7-.8a12.5,12.5,0,0,0-4.9-3.3c-4.7-4.2-4.5-9.3.5-11.3a8.4,8.4,0,0,1,6.9.7C204.9,38.4,215.4,38.2,225.9,38.8Z"/>
    <path class="cls-5" d="M114.9,130.3c21.6.1,43.3.4,64.8.1,5.8,0,9.5-2.4,11.7-11.3a2.8,2.8,0,0,0,.7-.9c.1-15.9.2-31.7,0-47.5a4.1,4.1,0,0,0-.7-1.1c0-1.2-.1-2.5-.2-3.7,3.1-2.5,3.8-6.1,4.5-9.7,2.1-.9,4.3-.4,6.5-.3,13.2.4,26.3.1,39.5.2h4.8c-13.3-.1-26.5,0-39.7,0-4.1,0-8.2-.7-12.3-.2a1.3,1.3,0,0,1-1-1.7c.8-1.5,2.4-1.1,3.7-1.1,14.8,0,29.6-.1,44.4.1,3.5,0,7,.5,10.4.2s3,1.1,2.8,3.2a1.3,1.3,0,0,1-.5,1.2c-1.3.1-.6-1.5-1.4-1.8s.2,1.6.4,2.4c-.1,32.3,0,64.6-.1,96.8a12.7,12.7,0,0,0,.3,3.4,5.1,5.1,0,0,1,.4,2.7c-.5,1.2-1.5.8-2.4.6-19.9-.2-39.7,0-59.6,0H133.4l-1.3.2a2.8,2.8,0,0,1-2-1.3c-4.9-8.9-9.7-17.8-14.5-26.7C115,133,113.9,131.8,114.9,130.3Z"/>
    <path class="cls-6" d="M114.9,130.3c4.7,10.4,10.9,19.9,15.8,30-.7,2.3-2.6,1.1-3.7,1.1H50.1c-1.1,0-2.4-.3-3.1,0s1.3,0,2.1,0h80.2a4.2,4.2,0,0,1,2.2.3h.7a7.4,7.4,0,0,1,3.3-.3H248.8c1.1,0,2.3-.3,3.3.3s1.3-.1,1.6-.7a13.3,13.3,0,0,0-.3-2.8c-.1-32.1,0-64.3,0-96.5,0-1.5-.1-3,1-4.2s-.2-3.8-3.3-3.8c-18.1.2-36.2.1-54.3.1-1.1,0-2.3-.3-3.2.8s-2.2.1-2.3-1.4a1.4,1.4,0,0,1,1.2-.6h49.7a3.7,3.7,0,0,1,2.5.4l1.5.2c9.1.2,9.1.2,9.1,9.1q0,48,.1,96c0,3.5-1,4.3-4.4,4.3H46.3c-3.6,0-4.3-1.2-4.3-4.5q.3-50.2,0-100.5c0-3.7,1.2-4.5,4.7-4.4,19.8.1,39.5,0,59.2,0a.5.5,0,0,1,.1.6c-1.6,1.3-3.6,1-5.4,1h-51q25.5-.1,51,0c1.8,0,3.7-.4,5.3,1,.1,19.6.2,39.3.1,58.9,0,3.7.4,7.2,2.2,10.5.5,1.4,1.2,2.6,3,2.8Z"/>
    <path class="cls-7" d="M149.1,181.4H264.9c3.5,0,4.9.8,4.7,4.5-.4,5.5-.1,11-.1,16.5s-2.3,8.3-8.3,8.3H36c-6.1,0-8.1-2-8.1-8s.2-11.3-.1-16.9c-.2-3.4.9-4.4,4.4-4.4Z"/>
    <path class="cls-8" d="M117.3,126.8c-5.8-2.2-7.4-4.6-7.4-11.5V15.3c.1-7,1.6-9.2,8.1-11.6a3.3,3.3,0,0,1,2.5-.5h35.1a3.4,3.4,0,0,1,2.2.4,5.6,5.6,0,0,1,1,3.8c-.1,38,0,75.9-.1,113.9,0,5.7,0,5.7-5.8,5.7C141,126.9,129.2,127.2,117.3,126.8Z"/>
    <path class="cls-9" d="M245.2,262.3c-12.2,10.3-25.4,19.2-40.3,25.3-8.4,3.4-17,6.6-26,7.9-5.2.3-10.4,1-15.7,1-28.5-.4-54.9-8.1-78.9-23.6A86.6,86.6,0,0,1,73.4,265c-1.1-1-3-1.6-2.5-3.3s2.5-.8,3.8-.8h25.8a26.3,26.3,0,0,0,4.9-.4,89.2,89.2,0,0,1,11.6-.7c27,0,54-.2,81,.1,12.9.1,25.9,0,38.8.2,2.7,0,5.3.5,7.9.4S247,261.1,245.2,262.3Z"/>
    <path class="cls-10" d="M46.9,256.5a112.3,112.3,0,0,1-22.7-28.6C-2.1,181.3-3,134,21.1,86.2c.6-1.1.9-2.3,2.5-3.3v4.6q0,56.6.1,112.9c0,1.4-.4,3,.4,4.4s.5.8.1,1.3c1.3,5.2,4.9,8.3,10.1,8.6,2.1.2,4.2.2,6.3.3,4.2,5.6,7.7,11.6,12.2,17.1a133.7,133.7,0,0,0,22,21.2c1.1.8,2.9,1.2,2.7,3.2a2.2,2.2,0,0,1-1.1.5c-8.8.2-17.5,0-26.3.1C49,257.1,47.9,257.3,46.9,256.5Z"/>
    <path class="cls-10" d="M256.8,215l4.8-.2c7.6-.2,12-4.4,12.1-12.2s0-14.8,0-22.1V86.4c0-1,.1-2.1.2-4.1a95.7,95.7,0,0,1,9.7,19.9q30,85.5-31.1,152.7A25.2,25.2,0,0,1,250,257a12,12,0,0,1-7.5-.1c-.5-2.2-1.7-3-4.2-2.9-4.6.2-9.3,0-14-.1-.4-2.8,2.2-3.7,3.7-5,10.3-8.3,18.4-18.5,25.7-29.4a26.9,26.9,0,0,0,1.6-2.9A7.7,7.7,0,0,1,256.8,215Z"/>
    <path class="cls-11" d="M77.3,255.7c-8.5-4.9-15.4-11.8-21.8-19A102.4,102.4,0,0,1,43,220c-.9-1.6-2.1-3.1-2.4-5h1.5c3.6.8,7.2.4,10.7.4h68.7c.8,0,1.8.3,2.5-.5l2.5-.3c2.4-.3,2.7.5,2,2.7-2.7,8.1-5.2,16.3-7.7,24.5-.6,1.7-1.3,2.4-3.2,2.4-7.2.1-11.9,3.7-14,10.6a3.8,3.8,0,0,1-1.4,2.1,2.7,2.7,0,0,1-2.1.5c-16.7,0-33.4-.1-50,0-1.1,0-2.3.4-3.3-.5a.9.9,0,0,1,.1-.5l30.4-.3c7.4-.5,14.8,0,20.9-.2C92.1,255.7,84.7,256.4,77.3,255.7Z"/>
    <path class="cls-12" d="M256,216.7c-4,8.2-9.9,15.2-15.9,22A109,109,0,0,1,227,251c-1.1.8-2.3,1.5-2.7,2.9-5.9.1-11.7.2-17.6.1-2.1,0-3.4.5-3.4,2.8a2.2,2.2,0,0,1-2.7,1c-2.3-1.3-4.2-3.1-6.9-3.8l-1.4-2.9c.2-1.2,1.2-.8,1.8-1s1.5-.9,1.3-1.9a1.6,1.6,0,0,0-2-1.3c-5.3,1-9.5-3.6-14.8-2.7-1,.2-1.4-.7-1.7-1.6-2.8-8.9-5.7-17.8-8.4-26.7-.1-.2.3-.5.4-.8,2.1.7,4.2.4,6.3.4h60.7c5.8,0,11.5.2,17.2.1C254.2,215.5,255.8,214.7,256,216.7Z"/>
    <path class="cls-13" d="M117.3,126.8h37.1c2.3,0,3.5-.3,3.5-3.1-.1-39.2,0-78.4-.1-117.6a17.9,17.9,0,0,0-.2-2.3c.2-.4.4-.4.8-.2l15.1.3a4.3,4.3,0,0,1,1.1,3.4c0,12.6.1,25.1,0,37.7l-.3,1.8c-5.3,2.2-3.4,6.6-3.5,10.6,1.3-.4.8-1.4.9-2.1a10.6,10.6,0,0,1,.2-2.5c.3-1.1.4-2.9,2.2-1.2a53.1,53.1,0,0,1,.1,14.9l-.2.3c-.5,1.9-2.8-.8-3.2,1.3a36.6,36.6,0,0,0,0,7.4c0,1.1.7,1.4,1.8,1s1.3.2,1.6,1c.8,3.8.4,7.7.4,11.5.1,10.3.1,20.5,0,30.7-.1,3.3.2,6,4.3,6.3a1.6,1.6,0,0,1,1.2.8c-.9.9-2.1.7-3.2.6-18.8-1.1-37.6.7-56.4,0C119.4,127.3,118.3,127.7,117.3,126.8Z"/>
    <path class="cls-8" d="M173.2,67.2V51a2.6,2.6,0,0,1,0-3.3V8.2c0-1.5.2-3,.3-4.5h3.4c7,.1,10.5,3.5,10.6,10.6s.1,15.7.1,23.6c-4.2,3.9-4.2,6.9,0,10.7,1.3,1.6,1.2,3.5.8,5.3-3.2,3.5-3.2,7.3-.8,11.2,0,17-.1,33.9-.2,50.8,0,6.2-1.7,8.6-7.3,10.7-6.9-.1-6.9-.1-6.9-7.2v-43A10.8,10.8,0,0,1,173.2,67.2Z"/>
    <path class="cls-14" d="M104.4,260.9c-1.1,1.2-2.6.7-3.9.7H70.8A147.2,147.2,0,0,0,112,285.8a138.1,138.1,0,0,0,34.6,8.6c9.7,1.1,19.6,1.8,29.4.4a4.2,4.2,0,0,1,2.9.7c-12.9,3.4-25.9,3.9-39.1,3.1-33.7-2.1-63.1-14.8-88.4-37.1-.3-1.2.7-1,1.4-1,17,0,34-.1,51,0C104,260.5,104.2,260.7,104.4,260.9Z"/>
    <path class="cls-7" d="M124,244.3l8.7-27.3c.2-.7.2-1.5,1-1.9s3.8.7,5.3,1.9c8,6,16,12,23.9,18.1a59.8,59.8,0,0,1,5.7,4.2c1.3,1.2,3.9,2.1,3.1,4.2s-3.1,1.1-4.8,1.1H132.8a15.3,15.3,0,0,0-5.2.5C126.3,245.3,125,245.4,124,244.3Z"/>
    <path class="cls-7" d="M107.4,255.6c1.1-4.6,5.2-7.5,11-7.5h47.1c4,0,8,.2,12-.1a13.7,13.7,0,0,1,10.9,3.9c.6,1.4,3.5,2.4.8,4.4s-3.7.3-5.6.3H112.3C110.7,256.1,108.6,258,107.4,255.6Z"/>
    <path class="cls-15" d="M127.7,244.3c1.2-1.2,2.8-.7,4.2-.7h39.9c-4-4.1-8.3-6.8-12.4-9.8-7.8-5.9-15.2-12.3-23.4-17.6-.8-.5-1.4-1.1-2.3-1.1.7-.9,1.8-.7,2.7-.7h24.4c2.2,0,3.3.7,4,2.9,2.5,8.3,5.2,16.6,7.8,24.9.2.8,1.1,2-.7,2.3s-3,1-4.6,1H132.2C130.6,245.4,128.9,245.7,127.7,244.3Z"/>
    <path class="cls-10" d="M228.9,35.1H193.5c-1.3,0-2.2-.1-2.2-1.7V16.3A118.5,118.5,0,0,1,228.9,35.1Z"/>
    <path class="cls-10" d="M68.5,35.1c8.1-6.6,17.1-11.2,26.6-15l8.7-3.2c1.5-.5,2.3-.6,2.3,1.4-.1,4.9-.1,9.7,0,14.6.1,2-.8,2.2-2.5,2.2Z"/>
    <path class="cls-16" d="M27.8,44.1c0,13.5-.1,27-.1,40.5q0,44.7-.1,89.6c0,3,.9,3.6,3.8,3.6q117.3-.2,234.6,0c2.9,0,3.7-.6,3.7-3.6-.1-42,0-84,0-126,0-1.4-.1-2.7-.2-4.1.6.4.7,1,.9,1.7a9.3,9.3,0,0,1,.1,2.9V174.5a7,7,0,0,1-.2,2.9c-.9,1.4-2.4,1-3.7,1H30.8c-1.3,0-2.8.4-3.8-.9a14.3,14.3,0,0,1-.2-4.1V79c0-1.3.4-2.7-.3-4l-.2-.3c1-4.3.4-8.6.5-13S26.5,50.6,27,45Z"/>
    <path class="cls-17" d="M189.9,255.6l-1.5-3.7c1.9.6,3.2,2.1,4.7,3.3s1,.7,1.4,0-.5-.8-.8-1.2c2.8-.2,5.4,0,6.7,3,.5.9,1.8.7,2.3,1.6s1.8,1.6,3.1,1.4c11.4-.4,22.8-.4,34.3,0h7.3c-.6.9.7,3.2-2.2,2.3.1-.5,1.1-1.2,0-1.5a11.1,11.1,0,0,0-2.6-.1H106.7l-2.3.2-51.5-.2c-.7,0-1.3.1-1.5.8s-1.8-.5-.6-1.3,1.9-.1,2.9-.1h52.4a10.8,10.8,0,0,1,4-.3h85.7a13.5,13.5,0,0,0,3.5-.2c.5-.3-.1-.9.1-.4s0,.2-.1.3-1.4.3-2.1.3H114.1a3.5,3.5,0,0,1-2.2-.4c1.3-1.2,2.9-.7,4.3-.7h62.7c1.5,0,3,.5,4.3-.8s3.5-.6,5.2-1.1a2,2,0,0,0,.8-.4A4.6,4.6,0,0,0,189.9,255.6Z"/>
    <path class="cls-18" d="M266.9,180.5H28.9v-.4H267.1Z"/>
    <path class="cls-19" d="M187.6,65.2c-4.2-3.8-4.2-7,0-10.7,1-1.3,2.2-1.8,3.7-.8l2.3,1,.9.6c.5.6,1.3.9,1.3,1.7.7,5.6.2,6.6-4.6,8.9Z"/>
    <path class="cls-20" d="M270.3,177.4q.1-65.9.1-131.6c1,1.2.5,2.6.5,3.9V173.5C270.9,174.8,271.4,176.3,270.3,177.4Z"/>
    <path class="cls-21" d="M24.2,206.1v-1.3c0-22.1.1-44.2.1-66.3V85.4c1.1,2,.7,3.4.7,4.7,0,28.4-.1,56.9.1,85.4,0,9-.7,18.1.4,27.2A4.5,4.5,0,0,1,24.2,206.1Z"/>
    <ellipse class="cls-2" cx="272.7" cy="145" rx="0.4" ry="80"/>
    <path class="cls-22" d="M26.5,75c.9.7.6,1.8.6,2.8,0,33.2-.1,66.4-.1,99.7-1.1-1.4-.5-2.9-.5-4.4q-.2-41.7-.1-83.6C26.4,84.7,26.4,79.8,26.5,75Z"/>
    <path class="cls-23" d="M127.7,244.3h44.2v1.4c-1.1.7-2.4.4-3.6.4H127.6a58.5,58.5,0,0,1-5.9-.4c-.6-2.5,1.5-1,2.3-1.5Z"/>
    <path class="cls-24" d="M111.9,259.3h87.6v.7H106.1C107.9,258.7,110,259.6,111.9,259.3Z"/>
    <path class="cls-25" d="M256,216.7c-.9-1.2-2.2-.8-3.4-.8-27.3,0-54.7.1-82,.3a1.8,1.8,0,0,1-1.7-1.1c2.1-.6,4.2-.3,6.3-.3,26.2-.1,52.4,0,78.6,0l3,.2A2.1,2.1,0,0,1,256,216.7Z"/>
    <path class="cls-25" d="M124,215c-1.1,1.3-2.6.8-3.9.8H45.9c-1.3,0-2.8.5-3.8-.8l44.1-.3Z"/>
    <path class="cls-26" d="M189.9,256.3v.8a4.8,4.8,0,0,1-2.9.4H114.9a5.2,5.2,0,0,1-3-.4,27.1,27.1,0,0,1-4-.1c-.9-.1-1.2-.6-.5-1.4,1.3,1.4,3,.5,4.5.7a6.2,6.2,0,0,1,3-.3H187A5.7,5.7,0,0,1,189.9,256.3Z"/>
    <path class="cls-27" d="M111.9,257.1h78c-2.1,1.5-4.5.4-6.7.7h-67C114.8,257.8,113.2,258.4,111.9,257.1Z"/>
    <path class="cls-28" d="M116.3.5H178c-2,1.2-3.3.8-4.5.8H123.1c-2,0-4-.3-6,.3s-.7-.7-.8-1.2Z"/>
    <path class="cls-29" d="M45.9,55.3v-.7a4.6,4.6,0,0,1,2.6-.4h54.9a4.4,4.4,0,0,1,2.5.4v.7a3.7,3.7,0,0,1-2.5.4H48.5A3.9,3.9,0,0,1,45.9,55.3Z"/>
    <path class="cls-30" d="M105.9,54.6h-60c1.3-1.3,2.9-.7,4.3-.7,18.6-.1,37.2,0,55.8,0C106,54.1,105.9,54.4,105.9,54.6Z"/>
    <path class="cls-31" d="M45.9,55.3h60v.8H50.2C48.8,56.1,47.2,56.6,45.9,55.3Z"/>
    <path class="cls-32" d="M46.8,257h55.4c-.9,1.2-2.3.8-3.4.8-17.1.2-34.2-.3-51.3.4-.5,0-.9,0-1.1-.6s.1-.3.1-.4Z"/>
    <path class="cls-33" d="M121.7,245.8c2-1.1,4.1.1,6.1.1h44.1c-.8,1.1-2,.8-3.1.8h-44C123.7,246.6,122.5,246.9,121.7,245.8Z"/>
    <path class="cls-34" d="M192.2,119.1h-.8V69.6h.8a2.8,2.8,0,0,1,.3,1.8c.1,15.4,0,30.9.1,46.3A2.3,2.3,0,0,1,192.2,119.1Z"/>
    <path class="cls-35" d="M158.4,3.5l-.8.2H118c-.4-.8.2-.9.7-.9h38A5.8,5.8,0,0,1,158.4,3.5Z"/>
    <path class="cls-36" d="M105.9,38.9H65.4c.8-.9,1.8-.7,2.8-.7h34.7C103.9,38.1,105.1,37.8,105.9,38.9Z"/>
    <path class="cls-37" d="M240.1,260H205.8c.4-.2.9-.6,1.3-.6h31.7C239.2,259.4,239.6,259.8,240.1,260Z"/>
    <path class="cls-36" d="M263.4,38.8H232.7c2.3-1.8,4.9-.7,7.4-.7l21.6-.3A1.6,1.6,0,0,1,263.4,38.8Z"/>
    <path class="cls-36" d="M225.9,38.8c-10.5.2-21,.4-31.4-.1,1-1,2.3-.6,3.5-.6h24.4C223.6,38.1,224.9,37.7,225.9,38.8Z"/>
    <path class="cls-38" d="M27,45c.1,8.7.1,17.4.1,26.2a5.4,5.4,0,0,1-.8,3.5c.1-9.3.1-18.7.2-28A4.8,4.8,0,0,1,27,45Z"/>
    <path class="cls-36" d="M58.7,38.8H33.9c1.3-1.2,2.8-.7,4.3-.7h17C56.4,38.1,57.7,37.7,58.7,38.8Z"/>
    <path class="cls-39" d="M242.5,256.9H250C247.5,258.1,245,258.9,242.5,256.9Z"/>
    <path class="cls-24" d="M202.7,258.6c-1.2,0-2.2,0-2.3-1.6l2.9-.2C203.4,257.5,203.4,258.2,202.7,258.6Z"/>
    <path class="cls-40" d="M111.2,128.3c-2.5.6-2.8-1.1-3-2.8Z"/>
    <path class="cls-2" d="M272.7,87c-.2-1.4-.6-2.5-.4-2.6s.7.4.8.9S273,85.9,272.7,87Z"/>
    <path class="cls-19" d="M244.7,53.1H191.4a1.1,1.1,0,0,1,.1-1.6,20,20,0,0,0,6.9.7h42.4C242.1,52.4,243.6,51.9,244.7,53.1Z"/>
    <path class="cls-41" d="M191.5,51.6c0,.5-.1,1.1-.1,1.6s-.2.3-.1.5l-3.7.8a18.8,18.8,0,0,1,0-5.8C189.1,49.4,191.7,48.6,191.5,51.6Z"/>
    <path class="cls-42" d="M252.1,161.8H132.2c1.2-1.2,2.6-.7,3.9-.7H248.2C249.6,161.1,251,160.6,252.1,161.8Z"/>
    <path class="cls-43" d="M254.4,159.6a1.5,1.5,0,0,1-.7,1.5,1.6,1.6,0,0,1-.8-1.5c-.6-1-.3-2.2-.3-3.3V60.9c0-1.1-.3-2.3.3-3.3s.1-1.1.2-1.7h.4l.2,1.7c.7,1.3.3,2.7.3,4,0,31.3,0,62.7.1,94C254.1,156.9,253.7,158.3,254.4,159.6Z"/>
    <path class="cls-44" d="M254.4,159.6c-1.3-1.2-.7-2.8-.7-4.3V57.6h.7Z"/>
    <path class="cls-45" d="M252.9,57.6v102c-1.2-1.1-.7-2.6-.7-3.9V61.5C252.2,60.2,251.7,58.7,252.9,57.6Z"/>
    <path class="cls-46" d="M131.5,161.8H45.6v-.7h80.8c1.5,0,3,.5,4.3-.8Z"/>
    <path class="cls-47" d="M176.9,131.7h-58v-.3h58.2Z"/>
    <path class="cls-43" d="M195.8,57l-1.3-1.7h56.9c0,1.2-.9,1.2-1.5,1.5s-2.7-.3-4-.3H206c-1.4,0-2.8.4-4.1-.3S197.7,55.3,195.8,57Z"/>
    <path class="cls-48" d="M192.2,119.1V69.6c1.1,1,.7,2.3.7,3.5.3,14.9-.4,29.8.4,44.7a3.4,3.4,0,0,1-.5,1.4h-.3Z"/>
    <path class="cls-49" d="M201.9,56.1H246c1.4,0,2.8-.5,3.9.7-14.7,0-29.4.1-44.1,0C204.5,56.8,203,57.3,201.9,56.1Z"/>
    <ellipse class="cls-50" cx="148.8" cy="209.1" rx="162.5" ry="0.4"/>
    <path class="cls-51" d="M149.4,186.6c5.5.1,9.1,4.1,9,10s-4.1,9.5-9.8,9.5a9.6,9.6,0,0,1-9.7-10C139,190.1,142.9,186.5,149.4,186.6Z"/>
    <path class="cls-52" d="M122.6,100.2v5.6c0,1.4-.4,2.6-2,2.6a2.1,2.1,0,0,1-1.9-2.3c0-4-.1-8,0-12,0-1.5.7-2.5,2.2-2.4s1.7,1.3,1.7,2.5Z"/>
    <path class="cls-53" d="M122.6,77.2v5.9c-.1,1.1-.4,2-1.7,2.1a1.9,1.9,0,0,1-2.2-1.9V70.6a1.9,1.9,0,0,1,2.3-1.9c1.3.1,1.6,1.1,1.6,2.1Z"/>
    <path class="cls-54" d="M77.3,255.7H99.2v.5H77.3Z"/>
    <path class="cls-55" d="M159.1,9.1V124.8h-.4V9Z"/>
    <path class="cls-56" d="M173.2,67.2v9.3c-.8.6-.5,2.5-2.2,1.9s-1.3-1.4-1.3-2.5V67.8c0-1.1.2-2.1,1.3-2.5S172.4,66.6,173.2,67.2Z"/>
    <path class="cls-57" d="M173.2,47.7V51c-1,2.1-.2,4.4-.5,6.6s0,1.9-1.1,2.1-1.8-.8-1.8-1.9c-.1-3.3-.1-6.5,0-9.7a2.3,2.3,0,0,1,1.9-2.2C172.9,45.7,172.4,47.3,173.2,47.7Z"/>
    <path class="cls-58" d="M189.9,256.3h-78c1.2-1.2,2.6-.7,3.9-.7h74.1Z"/>
  </g>
</svg>
