<svg id="Layer_1" data-name="Layer 1" xmlns="http://www.w3.org/2000/svg" width="13.5mm" height="14.8mm" viewBox="0 0 38.3 42">
  <defs>
    <style>
      .cls-1 {
        fill: none;
        stroke-miterlimit: 10;
      }

      .cls-1, .cls-2 {
        stroke: #000;
        stroke-width: 2px;
      }

      .cls-2 {
        stroke-linejoin: round;
      }
    </style>
  </defs>
  <title>user_icon</title>
  <g>
    <path class="cls-1" d="M30.3,34v1a4.3,4.3,0,0,1-1.8,3.6,7.2,7.2,0,0,1-4.2,1.2A7.3,7.3,0,0,1,20,38.6,4.2,4.2,0,0,1,18.3,35V34c-2.8.3-8.7,1.5-10.5,3.4s-1.5,4.4-1.7,7.2H42.4c-.2-2.8.1-5.3-1.7-7.2S33,34.3,30.3,34Z" transform="translate(-5.1 -3.6)"/>
    <path class="cls-1" d="M15.8,10.3v7.5l-.8-.2c-.8.2-1.3,1.6-1,3.2s1,2.5,1.8,2.6h0a8.5,8.5,0,0,0,6.5,8.2,2.7,2.7,0,0,0,4,0,8.5,8.5,0,0,0,6.5-8.2h0c.7-.1,1.5-1.2,1.8-2.6s-.2-3-1.1-3.2l-.7.2" transform="translate(-5.1 -3.6)"/>
    <path class="cls-2" d="M28.9,10.6s-2,2.3-6.3,2-6.4,3.4-6.1,7v.2S11.9,14,15,9.2s12.9-6.4,14.8-2c0,0,3.7,1.2,4.3,4.1s-1.3,9.4-1.3,9.4S32.4,10.4,28.9,10.6Z" transform="translate(-5.1 -3.6)"/>
  </g>
</svg>
